<?xml version="1.0" encoding="utf-8"?>
<!-- Generator: Adobe Illustrator 19.0.0, SVG Export Plug-In . SVG Version: 6.00 Build 0)  -->
<svg version="1.1" id="Layer_1" xmlns="http://www.w3.org/2000/svg" xmlns:xlink="http://www.w3.org/1999/xlink" x="0px" y="0px"
	 viewBox="0 0 960 560" style="enable-background:new 0 0 960 560;" xml:space="preserve">
<g id="XMLID_1_">
	<path id="XMLID_3_" d="M197.8,246.8c3-1,7.2-2.8,12.4-5.3c5.2-2.5,10.4-5.6,15.5-9.1s9.2-7.4,12.4-11.7c3.2-4.2,4.1-8.4,2.8-12.4
		c-3.7-4.7-9.5-7.3-17.2-7.6c-7.8-0.3-16.6,1.1-26.4,4.3c-9.8,3.2-20,7.6-30.7,13.2c-10.7,5.6-20.5,11.7-29.4,18.3
		c-9,6.6-16.7,13.4-23.1,20.5c-6.4,7.1-10.3,13.7-11.7,19.8c-1,4.4,0.4,7.8,4.3,10.1c3.9,2.4,9.2,4,16,4.8c6.8,0.8,14.5,1.2,23.3,1
		c8.8-0.2,17.7-0.5,26.6-1c9-0.5,17.6-1,25.9-1.5c8.3-0.5,15.5-0.8,21.6-0.8c7.1,0,12.4,1.3,16,3.8s5.7,5.8,6.3,9.9
		c0.7,4.1,0.2,8.9-1.5,14.5c-1.7,5.6-4.1,11.4-7.1,17.5l-2,4.1c-4.4,8.8-10.7,18.3-18.8,28.4c-8.1,10.1-18.1,19.5-29.9,28.2
		c-11.8,8.6-25.5,16-41.1,22.1c-15.6,6.1-33.1,9.5-52.8,10.1c-14.5,0.7-26.3-2.5-35.3-9.4c-9-6.9-13.4-16.2-13.4-27.6
		c0-10.5,2.1-19.4,6.3-26.9c4.2-7.4,9.7-13.7,16.5-18.8c6.8-5.1,14.5-9.1,23.1-12.2c8.6-3,17.2-5.4,25.6-7.1
		c8.4-1.7,16.6-2.7,24.3-3c7.8-0.3,14.2-0.5,19.3-0.5h0.5c3.7,0.3,7.7,0.8,11.9,1.3c4.2,0.5,7.4,2.1,9.4,4.8
		c1.7,3.7,1.1,6.7-1.8,8.9c-2.9,2.2-5.2,3.3-6.8,3.3c0.3,0,0.4-0.3,0.3-0.8c-0.2-0.5,0.1-0.8,0.8-0.8h0.5c-2.7-3-6.3-5.2-10.7-6.6
		c-10.8-0.7-21.8-0.2-33,1.5c-11.2,1.7-21.5,4.7-30.9,9.1c-9.5,4.4-17.8,10.1-24.9,17.2c-7.1,7.1-11.8,15.7-14.2,25.9
		c-1.7,6.1-1.7,11.3,0,15.7c1.7,4.4,4.1,8,7.1,10.9c3,2.9,6.6,4.9,10.7,6.1c4.1,1.2,7.9,1.8,11.7,1.8c11.5,0,22.7-2.1,33.5-6.3
		c10.8-4.2,21-9.6,30.4-16.2c9.5-6.6,18-13.9,25.6-21.8c7.6-7.9,13.9-15.5,19-22.6c1.7-1.7,7.4-10,17.2-24.9
		c3.4-5.7,5.9-11.3,7.6-16.7c1.7-5.4,0.2-8.6-4.6-9.6c-6.4-1.3-13.9-2.1-22.3-2.3c-8.5-0.2-17.3-0.2-26.6,0
		c-9.3,0.2-18.6,0.3-27.9,0.3c-9.3,0-17.8-0.6-25.4-1.8c-7.6-1.2-14-3.2-19.3-6.1c-5.2-2.9-8.4-7.2-9.4-12.9
		c-1.4-6.1,0.2-12.8,4.6-20c4.4-7.3,10.7-14.5,18.8-21.6c8.1-7.1,17.4-13.9,27.9-20.5c10.5-6.6,21.2-12.4,32.2-17.5
		c11-5.1,21.6-9.1,32-12.2c10.3-3,19.4-4.6,27.1-4.6c13.5,0,23,2.5,28.4,7.4c5.4,4.9,8.1,10.6,8.1,17c0,7.1-2.8,14.8-8.4,23.1
		c-5.6,8.3-12.5,16-20.8,23.1c-8.3,7.1-17.1,13.2-26.4,18.3c-9.3,5.1-17.7,7.8-25.1,8.1c-3,0.3-5.6-0.9-7.6-3.8
		c-2-2.9-3.3-6.4-3.8-10.7c-0.5-4.2-0.3-8.6,0.5-13.2c0.8-4.6,2.4-8.2,4.8-10.9c2-0.7,3.2-0.6,3.6,0.3c0.3,0.8,0.2,1.3-0.5,1.3
		c-0.7,0.7-0.9,1.4-0.8,2.3c0.2,0.8-0.4,1.9-1.8,3.3l0.5,1c3.7,0.7,7.2,0.7,10.4,0C191.1,249.2,194.4,248.2,197.8,246.8z"/>
	<path id="XMLID_5_" d="M318.5,325.9c1.7-0.3,2.9,0.1,3.6,1.3c0.7,1.2,0.2,3.1-1.5,5.8c-3.7,6.1-6.9,11.9-9.6,17.5
		c-2.7,5.6-5.4,10.9-8.1,16c-1.7,3.4-3.2,6.6-4.6,9.6c-1.4,3-2.9,6.1-4.6,9.1c-1.7,3-4.5,4.7-8.4,5.1c-3.9,0.3-6.7-0.5-8.4-2.5
		c-0.7-0.7-1.8-2.8-3.3-6.3c-1.5-3.6-2.6-6.8-3.3-9.9l0.5-1c-5.8,9.8-10.1,15.6-12.9,17.5c-2.9,1.9-5.8,2.8-8.9,2.8
		c-6.4,0-10.7-2.3-12.7-6.8c-2-4.6-2.8-10.3-2.3-17.2c0.5-6.9,1.9-14.2,4.1-21.8c2.2-7.6,4.3-14.5,6.3-20.5
		c2.7-6.8,4.9-12.6,6.6-17.5c1.7-4.9,2.9-7.9,3.6-8.9c1.3-2,3.1-3.5,5.3-4.3c2.2-0.8,4.4-1.2,6.6-1c2.2,0.2,4.1,0.8,5.8,1.8
		c1.7,1,2.7,2.5,3,4.6c0.7,1.4,0.2,2.9-1.5,4.6c-2.7,2.4-5.4,6-8.1,10.9c-2.7,4.9-5.1,10.3-7.1,16.2c-2,5.9-3.8,11.9-5.3,18
		c-1.5,6.1-2.6,11.2-3.3,15.2c-1.7,8.5-0.8,12.9,2.5,13.4c3.4,0.5,7.6-3.6,12.7-12.4c4.1-7.1,8.1-15.2,12.2-24.3
		c4.1-9.1,7.4-16.7,10.1-22.8c1.3-3,2.7-6,4.1-8.9c1.3-2.9,3-5.8,5.1-8.9c2.7-3.7,6.2-5.5,10.4-5.3c4.2,0.2,6.8,2.3,7.9,6.3
		c0,1.4-0.7,2.7-2,4.1c-2,2.7-4.3,6.8-6.8,12.2c-2.5,5.4-5,11.2-7.4,17.2c-2.4,6.1-4.6,12-6.6,17.8c-2,5.8-3.4,10.3-4.1,13.7v6.1
		l0.5-0.5c0.3,0,0.8-0.5,1.5-1.5l1-1c0-0.3,0.1-0.5,0.3-0.5c0.2,0,0.3-0.2,0.3-0.5c0.3-0.3,0.5-0.7,0.5-1c0-0.3,0.2-0.7,0.5-1
		c0-0.3,0.2-0.5,0.5-0.5c0.3-0.3,1.3-1.9,3-4.6c3.7-6.4,7.8-13.2,12.2-20.3C312.8,333.5,316.2,328.6,318.5,325.9z"/>
	<path id="XMLID_7_" d="M438.2,325.9c1.7-0.3,2.9,0.1,3.6,1.3c0.7,1.2,0.2,3.1-1.5,5.8c-5.8,10.1-10.7,18.5-14.7,25.1
		c-4.1,6.6-8.8,13.9-14.2,22.1c-3.7,5.4-6.8,8.5-9.4,9.4c-2.5,0.8-4.8,1.1-6.8,0.8c-2.4-0.7-4.2-1.8-5.6-3.3
		c-1.4-1.5-2.2-4.5-2.5-8.9c0-4.4,0.4-9.3,1.3-14.7c0.8-5.4,2-10.9,3.6-16.5c1.5-5.6,3.3-10.8,5.3-15.7c2-4.9,3.9-8.9,5.6-11.9
		c-3.4,4.7-6.9,10-10.7,15.7c-3.7,5.8-7.3,11.3-10.7,16.7c-3.4,5.4-6.4,10.3-9.1,14.7c-2.7,4.4-4.7,7.8-6.1,10.1
		c-3.7,5.1-6.7,8.6-8.9,10.7c-2.2,2-4.7,3-7.4,3c-2.4-0.7-4.2-1.7-5.6-3c-1.4-1.3-1.5-4.9-0.5-10.7c0.7-4.7,2-11.6,4.1-20.5
		c2-9,4.9-17.8,8.6-26.6c0.7-2.4,0.3-2.5-1-0.5c-4.1,5.4-8.4,11.5-12.9,18.3c-4.6,6.8-8.8,13.1-12.7,19c-3.9,5.9-7.3,11-10.1,15.2
		c-2.9,4.2-4.5,6.5-4.8,6.8c-2.7,2.4-6,3-9.9,1.8c-3.9-1.2-5.7-3.3-5.3-6.3c2-9.1,4.5-18.4,7.4-27.9c2.9-9.5,5.8-18.3,8.6-26.4
		c2.9-8.1,5.5-14.9,7.9-20.3c2.4-5.4,3.9-8.6,4.6-9.6c1.3-2,3.2-3.5,5.6-4.3c2.4-0.8,4.7-1.3,7.1-1.3c2.4,0,4.5,0.5,6.3,1.5
		c1.9,1,3,2.5,3.3,4.6c0.3,1.7-0.2,3.2-1.5,4.6c-2.7,1.7-5,4.1-6.8,7.1c-1.9,3-3.5,6.3-4.8,9.9c-1.4,3.6-2.5,7-3.6,10.4
		c-1,3.4-1.9,6.1-2.5,8.1c3.7-5.4,7.8-11.6,12.2-18.5c4.4-6.9,9-13.4,13.7-19.5c2-2.7,4.5-4.6,7.4-5.8c2.9-1.2,5.6-1.5,8.1-1
		c2.5,0.5,4.5,1.9,5.8,4.3c1.3,2.4,1.5,5.8,0.5,10.1c-0.3,2-1.2,5-2.5,8.9c-1.4,3.9-2.8,8.1-4.3,12.7c-1.5,4.6-3,9.1-4.6,13.7
		c-1.5,4.6-2.6,8.2-3.3,10.9v0.5c1.3-1.3,2.8-3.2,4.3-5.6c1.5-2.4,3.1-4.9,4.8-7.6c2-3.4,5.1-8.2,9.1-14.5
		c4.1-6.3,8.8-12.8,14.2-19.5c5.7-7.8,10.5-12.3,14.2-13.7c3.7-1.3,7.3-1.2,10.7,0.5c2.7,1.7,4.3,3.9,4.8,6.6
		c0.5,2.7-0.8,7.1-3.8,13.2c-3.7,7.1-7.4,14.5-11.2,22.3c-3.7,7.8-6.4,16.9-8.1,27.4c0,1,0,2.4,0,4.1c0,1.7,0.5,2.5,1.5,2.5
		c1,0,2.2-0.8,3.6-2.3c1.3-1.5,2.7-3.3,4.1-5.3c1.3-2,2.5-4,3.6-5.8c1-1.9,1.9-3.3,2.5-4.3c3.4-5.1,7.2-10.7,11.4-17
		C434.1,331.1,436.9,327.3,438.2,325.9z"/>
	<path id="XMLID_9_" d="M461.1,303.1c3,8.8,5.7,16.9,8.1,24.3c2.4,7.4,3.9,14.7,4.6,21.8c0.3,4.4,0.1,9.1-0.8,13.9
		c-0.8,4.9-2.4,9.4-4.6,13.4c-2.2,4.1-5.2,7.4-9.1,9.9c-3.9,2.5-8.7,3.8-14.5,3.8c-3.4,0-6.6-0.6-9.6-1.8c-3-1.2-5.4-3.6-7.1-7.4
		c-3.4-6.8-3.4-14.2,0-22.3c0.3-0.7,0.8-1.2,1.5-1.5c0.7-0.3,1.4-0.5,2-0.5c0.7,0.3,1.3,0.6,1.8,0.8c0.5,0.2,0.6,2,0.3,5.3
		c-0.3,2.4,0.3,5.2,1.8,8.4c1.5,3.2,4.1,5.2,7.9,5.8c2.7,0.3,4.6,0.2,5.8-0.5c1.2-0.7,2.1-1.3,2.8-2c3.7-3,6-7.1,6.8-12.2
		c0.8-5.1,0.9-11,0.3-17.8c-0.7-5.4-2-11-4.1-16.7c-2-5.7-3.4-8.8-4.1-9.1c0.3,0,0.3,0.2,0,0.5c-2,3.4-4.9,8-8.6,13.9
		c-3.7,5.9-7.5,11.8-11.4,17.8c-3.9,5.9-7.5,11.3-10.9,16.2c-3.4,4.9-5.6,8-6.6,9.4c-1,1.7-2.2,2.6-3.6,2.8
		c-1.3,0.2-2.2-2.1-2.5-6.8v-0.5c0-0.3,1.7-3.3,5.1-8.9c3.4-5.6,7.4-12,11.9-19.3c4.6-7.3,9.1-14.3,13.7-21.1
		c4.6-6.8,7.9-11.7,9.9-14.7c0-0.3-0.2-0.7-0.5-1c-2-6.1-2.9-10.3-2.5-12.7c0.3-2.4,1-4.4,2-6.1c1.3-2,3.3-3.3,5.8-3.8
		c2.5-0.5,4.8-0.2,6.8,1c2,1.2,3.4,3.2,4.1,6.1C464.3,294.6,463.4,298.4,461.1,303.1z M457,298.5c1.7-4.7,1.9-7.2,0.5-7.4
		c-1.4-0.2-2,0.1-2,0.8v1.5C455.5,294.8,456,296.5,457,298.5z"/>
	<path id="XMLID_12_" d="M522.9,325.9c1.7-0.3,2.9,0.1,3.6,1.3c0.7,1.2,0.2,3.1-1.5,5.8c-5.8,10.1-10.9,20.3-15.5,30.4
		c-4.6,10.1-8.7,17.4-12.4,21.8c-2.7,3.4-6,5.2-9.9,5.3c-3.9,0.2-6.7-0.8-8.4-2.8c-2-1.7-3.6-5.1-4.6-10.1s-0.7-11,1-17.8
		c1-4.1,2.6-9.4,4.8-16c2.2-6.6,4.8-13.6,7.9-21.1c3-7.4,6.1-14.9,9.1-22.3c3-7.4,5.7-14,8.1-19.8c-1.4-0.3-3.1-0.7-5.3-1
		c-2.2-0.3-4.5-0.7-6.8-1c-2.4-0.3-4.5-0.7-6.3-1c-1.9-0.3-3-0.5-3.3-0.5c-1.7-0.7-2.5-1.3-2.5-2c0-0.7,0-1.5,0-2.5
		c0-2.7,1.2-4.1,3.6-4.1c3.4-0.3,7.2-0.4,11.4-0.3c4.2,0.2,8.7,0.4,13.4,0.8l0.5-0.5c6.1-15.5,10.2-26.5,12.4-33
		c2.2-6.4,3.3-9.8,3.3-10.1c1-1.7,2.7-2.9,5.1-3.6c2.4-0.7,4.7-0.8,7.1-0.5c3.4,0.7,6.1,1.9,8.1,3.6c3.4,2.4,3.2,6.9-0.5,13.7
		c-1,2.4-1.9,4.5-2.8,6.3c-0.8,1.9-1.9,3.9-3,6.1c-1.2,2.2-2.6,4.8-4.3,7.9c-1.7,3-3.7,6.8-6.1,11.2c15.9,1,33.5,1.7,52.8,2
		c19.3,0.3,37.8-0.2,55.5-1.5c17.8-1.3,33.7-4.1,47.9-8.4c14.2-4.2,24.3-10.4,30.4-18.5c3.4,10.5,2.8,19-1.8,25.6
		c-4.6,6.6-11.9,11.7-22.1,15.2s-22.2,5.8-36.3,6.6c-14,0.8-28.8,1-44.4,0.5c-15.6-0.5-30.9-1.5-46.2-3c-15.2-1.5-29.1-3.1-41.6-4.8
		c-6.1,12.9-12.2,26.5-18.3,40.8c-6.1,14.4-10.8,27.1-14.2,38.3c-1.3,4.4-1.8,7-1.3,7.9c0.5,0.8,0.9,1.3,1.3,1.3
		c0.7,0.7,1.6,0.5,2.8-0.5c1.2-1,2.1-2,2.8-3c2-2.7,4.3-6.2,6.8-10.4c2.5-4.2,5-8.4,7.4-12.7c2.4-4.2,4.6-8.1,6.8-11.7
		C519.8,330.2,521.6,327.6,522.9,325.9z"/>
	<path id="XMLID_14_" d="M597.5,325.4c2.4,0,3.6,1,3.6,3c0,1.4-0.5,2.7-1.5,4.1c-2,3.4-4.7,8.5-8.1,15.2c-3.4,6.8-7.1,13.4-11.2,20
		c-4.1,6.6-8.1,12.2-12.2,16.7s-7.6,6.3-10.7,5.3c-1.7-0.7-3.3-2.4-4.8-5.1c-1.5-2.7-2.5-7.4-2.8-14.2l-0.5-0.5
		c-2.7,4.1-6,8.3-9.9,12.7c-3.9,4.4-8.2,6.8-12.9,7.1c-7.4,0.3-12.8-1.8-16.2-6.3c-3.4-4.6-5.1-10.3-5.1-17.2
		c0-6.9,1.4-14.6,4.3-23.1c2.9-8.4,6.8-16.2,11.7-23.3c4.9-7.1,10.6-13,17-17.8c6.4-4.7,13.2-7.1,20.3-7.1c6.8,0,10.7,4.7,11.7,14.2
		c1.7-2.7,3.8-5.7,6.3-9.1c2.5-3.4,5.7-5.1,9.4-5.1c1.7,0,3.9,0.8,6.6,2.3c2.7,1.5,3.6,3.1,2.5,4.8c-2.4,3.7-5.9,10.7-10.7,21.1
		c-4.7,10.3-10.1,24.1-16.2,41.3c-0.7,0.7-1,1.5-1,2.5c-0.7,2.4-0.3,3.2,1,2.5c0.7,0,2.3-1.9,4.8-5.6c2.5-3.7,5.3-8.1,8.4-13.2
		c3-5.1,6.1-10.1,9.1-15C593.5,330.9,595.8,327.5,597.5,325.4z M523.5,377.2c2.4,2,5.7,1.2,10.1-2.5c4.4-3.7,8.8-8.7,13.2-15
		c4.4-6.3,8.4-12.8,11.9-19.8c3.6-6.9,5.8-12.8,6.8-17.5c0-0.7-0.3-1.9-1-3.5c-0.7-1.7-1.7-3.1-3-4.3c-1.4-1.2-3.1-1.9-5.3-2.3
		c-2.2-0.3-5,0.5-8.4,2.5c-4.7,2.7-8.9,6.2-12.4,10.4c-3.6,4.2-6.8,10.1-9.9,17.5c-1,3-2,6.3-3,9.6c-1,3.4-1.7,6.8-2,10.1
		c-0.3,3.4-0.3,6.3,0,8.9C520.8,373.9,521.8,375.8,523.5,377.2z"/>
	<path id="XMLID_17_" d="M639.6,375.6c3.4-1,7.7-2.1,12.9-3.3c5.2-1.2,8-1.8,8.4-1.8c-0.3,0.3-2.7,1.3-7.1,2.8
		c-4.4,1.5-9.8,4-16.2,7.4c-5.4,15.2-10.2,28.8-14.5,40.8c-4.2,12-8.3,22.1-12.2,30.2c-3.9,8.1-7.8,14.4-11.7,18.8
		c-3.9,4.4-8,6.6-12.4,6.6c-2.7,0-4.9-0.8-6.6-2.5c-1.7-1.7-3-3.6-4.1-5.8c-1-2.2-1.7-4.7-2-7.4c-0.3-2.7-0.5-5.1-0.5-7.1
		c-0.3-4.4,0.3-9.5,1.8-15.2c1.5-5.8,4-11.7,7.4-17.8c3.4-6.1,7.5-12,12.4-17.8c4.9-5.8,10.7-10.8,17.5-15.2c4.7-3,7.6-6.3,8.6-9.6
		c1-3.4,2.2-6.9,3.6-10.7c-5.4,5.4-10.6,10.5-15.5,15.2c-4.9,4.7-10.6,7.1-17,7.1c-3,0-5.5-0.8-7.4-2.3c-1.9-1.5-3.2-3.5-4.1-5.8
		c-0.8-2.4-1.3-4.8-1.5-7.4c-0.2-2.5-0.3-4.8-0.3-6.8c0-4.4,0.8-10.7,2.5-19c1.7-8.3,4.4-16.4,8.1-24.3c3.7-7.9,8.5-14.9,14.5-20.8
		c5.9-5.9,13.1-8.9,21.6-8.9c1,0,2.4,0.3,4.1,0.8c1.7,0.5,3.5,1.3,5.3,2.3c1.9,1,3.5,2.4,4.8,4.1c1.3,1.7,2,3.7,2,6.1
		c2.4-4.7,4.4-8.2,6.1-10.4c1.7-2.2,4.7-3.3,9.1-3.3c2.7,0,5.3,0.5,7.9,1.5s3.8,2.5,3.8,4.6c0,0.3-0.1,0.7-0.3,1
		c-0.2,0.3-0.3,0.7-0.3,1c-0.7,0-2,2.4-4.1,7.1c-2,4.7-4.4,10.7-7.1,18c-2.7,7.3-5.7,15.2-8.9,23.8
		C645.3,360.2,642.3,368.2,639.6,375.6z M589.9,457.3c1-0.3,2.5-2.5,4.6-6.6c2-4.1,4.2-9.1,6.6-15.2c2.4-6.1,4.9-12.9,7.6-20.5
		c2.7-7.6,5.2-15,7.6-22.1c-7.8,7.8-14.7,16-20.8,24.6s-9.1,19-9.1,31.2c0,1.7,0.3,3.7,0.8,6.1C587.6,457.1,588.6,458,589.9,457.3z
		 M631.5,337.6c1.3-3.4,2.5-6.6,3.6-9.6c1-3,1.7-4.9,2-5.6c-0.3-3-1.6-5.4-3.8-7.1c-2.2-1.7-4.8-2.5-7.9-2.5c-5.4,0-10.1,2-14.2,6.1
		c-4.1,4.1-7.4,9.1-9.9,15c-2.5,5.9-4.4,12.1-5.6,18.5c-1.2,6.4-1.8,11.8-1.8,16.2c0,5.8,1.5,8.6,4.6,8.6c2,0,4.4-1.1,7.1-3.3
		c2.7-2.2,5.5-4.8,8.4-7.9c2.9-3,5.4-6,7.6-8.9c2.2-2.9,3.8-5,4.8-6.3L631.5,337.6z"/>
	<path id="XMLID_21_" d="M732.9,316.8c2.7-0.3,3,2,1,7.1c-7.1,7.8-12.3,13.9-15.7,18.3c-3.4,4.4-6.3,7.4-8.6,9.1
		c-2,1.7-4.1,1.8-6.1,0.3c-2-1.5-2.9-4.1-2.5-7.9c0.3-3.7,0.8-7.9,1.3-12.4c0.5-4.6,1.3-9.9,2.3-16c0-1.3-0.3-2-1-2
		c-0.3-0.3-0.7-0.2-1,0.5c-0.3,0.7-0.7,1.4-1,2c-2.4,3.4-5.7,8.8-9.9,16.2c-4.2,7.4-8.5,15-12.9,22.6c-4.4,7.6-8.4,14.6-11.9,21.1
		c-3.6,6.4-5.8,10.3-6.8,11.7c-1.3,1.7-3.6,2.7-6.8,3c-3.2,0.3-4.8-2-4.8-7.1v-0.5h0.5c0-2.4,0.3-4.4,1-6.1c0-0.7,0.2-1.5,0.5-2.5
		c0.3-1,0.7-2,1-3c2-8.4,4.4-16.8,7.1-25.1c2.7-8.3,5.2-15.8,7.4-22.6c2.2-6.8,4.2-12.4,6.1-17c1.9-4.6,3.1-7.4,3.8-8.4
		c1-2,2.6-3.5,4.8-4.3c2.2-0.8,4.4-1.2,6.6-1c2.2,0.2,4.2,0.8,6.1,1.8c1.9,1,3,2.5,3.3,4.6c0,0.7-0.2,1.4-0.5,2.3
		c-0.3,0.8-0.8,1.6-1.5,2.3c-1.7,1.4-3.6,3.9-5.6,7.6c-2,3.7-3.9,8-5.6,12.7c-0.3,1-0.7,2-1,3c-0.3,1-0.7,2.2-1,3.6
		c4.1-6.8,8.4-13.4,12.9-20c4.6-6.6,7.5-10.4,8.9-11.4c1.7-1.7,3.7-3,6.1-3.8c2.4-0.8,4.5-1,6.3-0.5c1.9,0.5,3.4,1.7,4.6,3.6
		c1.2,1.9,1.4,4.3,0.8,7.4c-0.7,2.7-1.4,5.8-2.3,9.4c-0.8,3.6-1.7,6.9-2.5,10.1c-0.8,3.2-1.7,6.2-2.5,8.9c-0.8,2.7-1.3,4.2-1.3,4.6
		c-0.3,1.4-0.3,1.9,0,1.5c0.3-0.3,0.8-0.7,1.5-1c1-1.3,3.6-4.5,7.6-9.4C725.3,324.8,729.2,320.5,732.9,316.8z"/>
	<path id="XMLID_23_" d="M802.4,325.4c2.4,0,3.6,1,3.6,3c0,1.4-0.5,2.7-1.5,4.1c-2,3.4-4.7,8.5-8.1,15.2c-3.4,6.8-7.1,13.4-11.2,20
		c-4.1,6.6-8.1,12.2-12.2,16.7s-7.6,6.3-10.7,5.3c-1.7-0.7-3.3-2.4-4.8-5.1c-1.5-2.7-2.5-7.4-2.8-14.2l-0.5-0.5
		c-2.7,4.1-6,8.3-9.9,12.7c-3.9,4.4-8.2,6.8-12.9,7.1c-7.4,0.3-12.8-1.8-16.2-6.3c-3.4-4.6-5.1-10.3-5.1-17.2
		c0-6.9,1.4-14.6,4.3-23.1c2.9-8.4,6.8-16.2,11.7-23.3c4.9-7.1,10.6-13,17-17.8c6.4-4.7,13.2-7.1,20.3-7.1c6.8,0,10.7,4.7,11.7,14.2
		c1.7-2.7,3.8-5.7,6.3-9.1c2.5-3.4,5.7-5.1,9.4-5.1c1.7,0,3.9,0.8,6.6,2.3c2.7,1.5,3.6,3.1,2.5,4.8c-2.4,3.7-5.9,10.7-10.7,21.1
		c-4.7,10.3-10.1,24.1-16.2,41.3c-0.7,0.7-1,1.5-1,2.5c-0.7,2.4-0.3,3.2,1,2.5c0.7,0,2.3-1.9,4.8-5.6c2.5-3.7,5.3-8.1,8.4-13.2
		c3-5.1,6.1-10.1,9.1-15C798.4,330.9,800.7,327.5,802.4,325.4z M728.4,377.2c2.4,2,5.7,1.2,10.1-2.5c4.4-3.7,8.8-8.7,13.2-15
		c4.4-6.3,8.4-12.8,11.9-19.8c3.6-6.9,5.8-12.8,6.8-17.5c0-0.7-0.3-1.9-1-3.5c-0.7-1.7-1.7-3.1-3-4.3c-1.4-1.2-3.1-1.9-5.3-2.3
		c-2.2-0.3-5,0.5-8.4,2.5c-4.7,2.7-8.9,6.2-12.4,10.4c-3.6,4.2-6.8,10.1-9.9,17.5c-1,3-2,6.3-3,9.6c-1,3.4-1.7,6.8-2,10.1
		c-0.3,3.4-0.3,6.3,0,8.9C725.7,373.9,726.7,375.8,728.4,377.2z"/>
	<path id="XMLID_26_" d="M923.2,325.9c1.7-0.3,2.9,0.1,3.6,1.3c0.7,1.2,0.2,3.1-1.5,5.8c-5.8,10.1-10.7,18.5-14.7,25.1
		c-4.1,6.6-8.8,13.9-14.2,22.1c-3.7,5.4-6.8,8.5-9.4,9.4c-2.5,0.8-4.8,1.1-6.8,0.8c-2.4-0.7-4.2-1.8-5.6-3.3
		c-1.4-1.5-2.2-4.5-2.5-8.9c0-4.4,0.4-9.3,1.3-14.7c0.8-5.4,2-10.9,3.6-16.5c1.5-5.6,3.3-10.8,5.3-15.7c2-4.9,3.9-8.9,5.6-11.9
		c-3.4,4.7-6.9,10-10.7,15.7c-3.7,5.8-7.3,11.3-10.7,16.7c-3.4,5.4-6.4,10.3-9.1,14.7c-2.7,4.4-4.7,7.8-6.1,10.1
		c-3.7,5.1-6.7,8.6-8.9,10.7c-2.2,2-4.7,3-7.4,3c-2.4-0.7-4.2-1.7-5.6-3c-1.4-1.3-1.5-4.9-0.5-10.7c0.7-4.7,2-11.6,4.1-20.5
		c2-9,4.9-17.8,8.6-26.6c0.7-2.4,0.3-2.5-1-0.5c-4.1,5.4-8.4,11.5-12.9,18.3c-4.6,6.8-8.8,13.1-12.7,19c-3.9,5.9-7.3,11-10.1,15.2
		c-2.9,4.2-4.5,6.5-4.8,6.8c-2.7,2.4-6,3-9.9,1.8c-3.9-1.2-5.7-3.3-5.3-6.3c2-9.1,4.5-18.4,7.4-27.9c2.9-9.5,5.8-18.3,8.6-26.4
		c2.9-8.1,5.5-14.9,7.9-20.3c2.4-5.4,3.9-8.6,4.6-9.6c1.3-2,3.2-3.5,5.6-4.3c2.4-0.8,4.7-1.3,7.1-1.3c2.4,0,4.5,0.5,6.3,1.5
		c1.9,1,3,2.5,3.3,4.6c0.3,1.7-0.2,3.2-1.5,4.6c-2.7,1.7-5,4.1-6.8,7.1c-1.9,3-3.5,6.3-4.8,9.9c-1.4,3.6-2.5,7-3.6,10.4
		c-1,3.4-1.9,6.1-2.5,8.1c3.7-5.4,7.8-11.6,12.2-18.5c4.4-6.9,9-13.4,13.7-19.5c2-2.7,4.5-4.6,7.4-5.8c2.9-1.2,5.6-1.5,8.1-1
		c2.5,0.5,4.5,1.9,5.8,4.3c1.3,2.4,1.5,5.8,0.5,10.1c-0.3,2-1.2,5-2.5,8.9c-1.4,3.9-2.8,8.1-4.3,12.7c-1.5,4.6-3,9.1-4.6,13.7
		c-1.5,4.6-2.6,8.2-3.3,10.9v0.5c1.3-1.3,2.8-3.2,4.3-5.6c1.5-2.4,3.1-4.9,4.8-7.6c2-3.4,5.1-8.2,9.1-14.5
		c4.1-6.3,8.8-12.8,14.2-19.5c5.7-7.8,10.5-12.3,14.2-13.7c3.7-1.3,7.3-1.2,10.7,0.5c2.7,1.7,4.3,3.9,4.8,6.6
		c0.5,2.7-0.8,7.1-3.8,13.2c-3.7,7.1-7.4,14.5-11.2,22.3c-3.7,7.8-6.4,16.9-8.1,27.4c0,1,0,2.4,0,4.1c0,1.7,0.5,2.5,1.5,2.5
		s2.2-0.8,3.6-2.3c1.3-1.5,2.7-3.3,4.1-5.3c1.3-2,2.5-4,3.5-5.8c1-1.9,1.9-3.3,2.5-4.3c3.4-5.1,7.2-10.7,11.4-17
		C919,331.1,921.8,327.3,923.2,325.9z"/>
</g>
<g id="XMLID_2_">
</g>
<g id="XMLID_28_">
</g>
<g id="XMLID_29_">
</g>
<g id="XMLID_30_">
</g>
<g id="XMLID_31_">
</g>
<g id="XMLID_32_">
</g>
<g id="XMLID_33_">
</g>
<g id="XMLID_34_">
</g>
<g id="XMLID_35_">
</g>
<g id="XMLID_36_">
</g>
<g id="XMLID_37_">
</g>
<g id="XMLID_38_">
</g>
<g id="XMLID_39_">
</g>
<g id="XMLID_40_">
</g>
<g id="XMLID_41_">
</g>
</svg>
